<svg xmlns="http://www.w3.org/2000/svg" width="205pt" height="196pt" viewBox="0 0 205 196" version="1.1">
<g id="#1939a6ff">
</g>
<g id="#ffffffff">
<path fill="#ffffff" opacity="1.00" d=" M 35.28 56.56 C 58.46 42.70 81.87 29.24 104.98 15.27 C 108.86 17.68 112.82 19.96 116.84 22.12 C 93.48 35.91 69.83 49.21 46.56 63.14 C 46.69 86.33 46.51 109.51 46.64 132.69 C 49.99 134.34 53.29 136.08 56.52 137.94 C 56.52 114.81 56.51 91.68 56.52 68.54 C 79.83 54.88 103.33 41.53 126.65 27.89 C 137.80 34.33 148.88 40.93 160.21 47.06 C 137.05 60.70 113.80 74.16 90.62 87.76 C 90.74 115.31 90.59 142.87 90.69 170.42 C 86.97 168.15 83.16 166.03 79.41 163.82 C 79.44 136.33 79.25 108.83 79.50 81.35 C 99.20 69.36 119.15 57.68 139.02 45.94 C 135.47 43.89 132.02 41.70 128.43 39.71 C 108.42 51.79 88.06 63.32 67.83 75.05 C 67.92 102.43 67.65 129.81 68.12 157.18 C 57.01 151.23 46.23 144.66 35.29 138.40 C 35.29 111.12 35.31 83.84 35.28 56.56 Z"/>
<path fill="#ffffff" opacity="1.00" d=" M 101.50 94.05 C 124.43 80.29 147.62 66.97 170.47 53.09 C 173.07 54.65 175.69 56.18 178.28 57.76 C 178.27 59.15 178.27 60.55 178.26 61.94 C 156.50 74.82 134.64 87.55 112.89 100.44 C 112.66 121.56 112.89 142.69 112.77 163.81 C 130.73 152.94 148.94 142.46 166.90 131.58 C 166.98 119.47 166.55 107.33 167.14 95.23 C 156.24 101.59 145.23 107.78 134.45 114.31 C 134.26 117.79 134.26 121.30 134.53 124.78 C 142.03 119.93 150.11 116.01 157.80 111.45 C 157.48 115.81 158.14 120.24 157.56 124.57 C 146.04 131.37 134.43 138.03 122.87 144.77 C 122.98 132.46 122.92 120.15 122.91 107.84 C 141.26 96.93 159.84 86.39 178.27 75.61 C 178.29 96.43 178.25 117.24 178.28 138.05 C 154.39 152.05 130.25 165.63 106.31 179.55 C 104.72 178.54 103.11 177.56 101.50 176.59 C 101.52 149.08 101.51 121.56 101.50 94.05 Z"/>
</g>
</svg>