<svg width="16" height="16" viewBox="0 0 16 16" fill="none" xmlns="http://www.w3.org/2000/svg">
<mask id="mask0_153_39" style="mask-type:alpha" maskUnits="userSpaceOnUse" x="0" y="0" width="16" height="16">
<rect width="16" height="16" fill="#D9D9D9"/>
</mask>
<g mask="url(#mask0_153_39)">
<path d="M7.05379 10.8359L11.5358 6.35385L10.8333 5.6513L7.05379 9.43079L5.15379 7.53079L4.45124 8.23334L7.05379 10.8359ZM8.00106 14.3333C7.1251 14.3333 6.30175 14.1671 5.53099 13.8347C4.76023 13.5022 4.08977 13.051 3.51963 12.4812C2.94947 11.9113 2.4981 11.2411 2.16551 10.4707C1.83292 9.70026 1.66663 8.87708 1.66663 8.00112C1.66663 7.12517 1.83285 6.30181 2.16529 5.53105C2.49774 4.76029 2.9489 4.08983 3.51879 3.51969C4.08869 2.94953 4.75885 2.49816 5.52928 2.16557C6.29969 1.83298 7.12287 1.66669 7.99883 1.66669C8.87478 1.66669 9.69814 1.83291 10.4689 2.16535C11.2397 2.4978 11.9101 2.94897 12.4803 3.51885C13.0504 4.08875 13.5018 4.75892 13.8344 5.52934C14.167 6.29975 14.3333 7.12293 14.3333 7.99889C14.3333 8.87484 14.167 9.6982 13.8346 10.469C13.5021 11.2397 13.051 11.9102 12.4811 12.4803C11.9112 13.0505 11.241 13.5018 10.4706 13.8344C9.7002 14.167 8.87702 14.3333 8.00106 14.3333ZM7.99994 13.3333C9.48883 13.3333 10.7499 12.8167 11.7833 11.7833C12.8166 10.75 13.3333 9.48889 13.3333 8C13.3333 6.51112 12.8166 5.25 11.7833 4.21667C10.7499 3.18334 9.48883 2.66667 7.99994 2.66667C6.51105 2.66667 5.24994 3.18334 4.21661 4.21667C3.18328 5.25 2.66661 6.51112 2.66661 8C2.66661 9.48889 3.18328 10.75 4.21661 11.7833C5.24994 12.8167 6.51105 13.3333 7.99994 13.3333Z" fill="#00B733"/>
</g>
</svg>
