<svg width="23" height="23" viewBox="0 0 23 23" fill="none" xmlns="http://www.w3.org/2000/svg">
<g id="&#240;&#159;&#166;&#134; icon &#34;cpu&#34;">
<path id="Vector" d="M1 1H22.3708V22.3708H1V1Z" fill="white" fill-opacity="0.01"/>
<path id="Vector_2" d="M22.3708 1H1V22.3708H22.3708V1Z" fill="white" fill-opacity="0.01"/>
<path id="Vector_3" d="M17.9186 4.56186H5.45234C4.96056 4.56186 4.56189 4.96053 4.56189 5.45231V17.9186C4.56189 18.4104 4.96056 18.8091 5.45234 18.8091H17.9186C18.4104 18.8091 18.8091 18.4104 18.8091 17.9186V5.45231C18.8091 4.96053 18.4104 4.56186 17.9186 4.56186Z" stroke="#2D2D2D" stroke-width="2.0309" stroke-linejoin="round"/>
<path id="Vector_4" d="M7.63794 1.89047V4.56182" stroke="#2D2D2D" stroke-width="2.0309" stroke-linecap="round" stroke-linejoin="round"/>
<path id="Vector_5" d="M7.63794 18.809V21.4803" stroke="#2D2D2D" stroke-width="2.0309" stroke-linecap="round" stroke-linejoin="round"/>
<path id="Vector_6" d="M11.6854 1.89047V4.56182" stroke="#2D2D2D" stroke-width="2.0309" stroke-linecap="round" stroke-linejoin="round"/>
<path id="Vector_7" d="M11.6854 18.809V21.4803" stroke="#2D2D2D" stroke-width="2.0309" stroke-linecap="round" stroke-linejoin="round"/>
<path id="Vector_8" d="M15.7328 1.89047V4.56182" stroke="#2D2D2D" stroke-width="2.0309" stroke-linecap="round" stroke-linejoin="round"/>
<path id="Vector_9" d="M15.7328 18.809V21.4803" stroke="#2D2D2D" stroke-width="2.0309" stroke-linecap="round" stroke-linejoin="round"/>
<path id="Vector_10" d="M1.8905 7.63794H4.56185" stroke="#2D2D2D" stroke-width="2.0309" stroke-linecap="round" stroke-linejoin="round"/>
<path id="Vector_11" d="M18.809 7.63794H21.4803" stroke="#2D2D2D" stroke-width="2.0309" stroke-linecap="round" stroke-linejoin="round"/>
<path id="Vector_12" d="M1.8905 11.6854H4.56185" stroke="#2D2D2D" stroke-width="2.0309" stroke-linecap="round" stroke-linejoin="round"/>
<path id="Vector_13" d="M18.809 11.6854H21.4803" stroke="#2D2D2D" stroke-width="2.0309" stroke-linecap="round" stroke-linejoin="round"/>
<path id="Vector_14" d="M1.8905 15.7329H4.56185" stroke="#2D2D2D" stroke-width="2.0309" stroke-linecap="round" stroke-linejoin="round"/>
<path id="Vector_15" d="M18.809 15.7329H21.4803" stroke="#2D2D2D" stroke-width="2.0309" stroke-linecap="round" stroke-linejoin="round"/>
</g>
</svg>
