<svg width="26" height="26" viewBox="0 0 26 26" fill="none" xmlns="http://www.w3.org/2000/svg">
<g id="&#240;&#159;&#166;&#134; icon &#34;Collapse all&#34;">
<path id="Vector" d="M24.1038 12.0519H22.4969V5.62426H10.445V4.01733H22.4969C22.923 4.01782 23.3314 4.18728 23.6327 4.48853C23.9339 4.78978 24.1034 5.19822 24.1038 5.62426V12.0519Z" fill="#2D2D2D"/>
<path id="Vector_2" d="M20.0865 16.0692H18.4796V9.64153H6.42767V8.03461H18.4796C18.9056 8.0351 19.3141 8.20455 19.6153 8.5058C19.9166 8.80705 20.086 9.2155 20.0865 9.64153V16.0692Z" fill="#2D2D2D"/>
<path id="Vector_3" d="M14.4623 21.6935H3.21386C2.78782 21.693 2.37938 21.5235 2.07813 21.2223C1.77688 20.921 1.60742 20.5126 1.60693 20.0866V13.6589C1.60742 13.2328 1.77688 12.8244 2.07813 12.5231C2.37938 12.2219 2.78782 12.0524 3.21386 12.0519H14.4623C14.8883 12.0524 15.2968 12.2219 15.598 12.5231C15.8993 12.8244 16.0687 13.2328 16.0692 13.6589V20.0866C16.0687 20.5126 15.8993 20.921 15.598 21.2223C15.2968 21.5235 14.8883 21.693 14.4623 21.6935ZM3.21386 13.6589V20.0866H14.4633L14.4623 13.6589H3.21386Z" fill="#2D2D2D"/>
</g>
</svg>
