<svg width="23" height="14" viewBox="0 0 23 14" fill="none" xmlns="http://www.w3.org/2000/svg">
<g id="&#240;&#159;&#166;&#134; icon &#34;ram memory&#34;">
<path id="Vector" d="M0 0H23V5.86944L22.2712 5.90241C22.2623 5.9012 22.2521 5.9005 22.2418 5.9005C22.1243 5.9005 22.0291 5.98826 22.0291 6.0965C22.0291 6.20474 22.1243 6.29245 22.2417 6.29245C22.2521 6.29245 22.2623 6.29181 22.2723 6.29046L22.2712 6.29059L23 6.32356V14H0V6.47994L0.539745 6.32542C0.644328 6.29444 0.718673 6.20558 0.718673 6.10073C0.718673 5.99588 0.644328 5.907 0.541559 5.87649L0.539722 5.87602L0 5.72059V0ZM21.4667 1.4132H1.53336V4.77753C1.97181 5.08197 2.25234 5.56091 2.25234 6.10031C2.25234 6.6397 1.97183 7.11858 1.53793 7.41999L1.53334 7.42302V12.5868H21.4667V7.52762C20.9089 7.26093 20.5274 6.74402 20.4968 6.14256L20.4966 6.1389V6.07673C20.5196 5.46469 20.9032 4.9399 21.4568 4.67538L21.4667 4.67109L21.4667 1.4132ZM4.87603 3.59892H10.3143V8.61106H4.87603V3.59892ZM8.78091 5.01212H6.40937V7.19784H8.78091V5.01212ZM8.78091 3.59892H14.2192V8.61106H8.78089L8.78091 3.59892ZM12.6858 5.01212H10.3143V7.19784H12.6858V5.01212ZM12.6858 3.59892H18.124V8.61106H12.6858V3.59892ZM16.5907 5.01212H14.2192V7.19784H16.5907L16.5907 5.01212ZM4.45689 13.2934H2.92355V10.5989H4.45689V13.2934ZM8.36177 13.2934H6.82841V10.5989H8.36175L8.36177 13.2934ZM12.2666 13.2934H10.7334V10.5989H12.2667L12.2666 13.2934ZM16.1715 13.2934H14.6382V10.5989H16.1715V13.2934ZM20.0764 13.2934H18.5431V10.5989H20.0764V13.2934Z" fill="#2D2D2D"/>
</g>
</svg>
