<svg width="26" height="24" viewBox="0 0 26 24" fill="none" xmlns="http://www.w3.org/2000/svg">
<g id="&#240;&#159;&#166;&#134; icon &#34;SSD Square&#34;">
<g id="Group">
<path id="Vector" fill-rule="evenodd" clip-rule="evenodd" d="M12.1324 16.571C12.6227 16.571 13.0202 16.9685 13.0202 17.4588V18.6424C13.0202 19.1327 12.6227 19.5302 12.1324 19.5302C11.6422 19.5302 11.2447 19.1327 11.2447 18.6424V17.4588C11.2447 16.9685 11.6422 16.571 12.1324 16.571ZM15.0915 16.571C15.5818 16.571 15.9793 16.9685 15.9793 17.4588V18.6424C15.9793 19.1327 15.5818 19.5302 15.0915 19.5302C14.6013 19.5302 14.2038 19.1327 14.2038 18.6424V17.4588C14.2038 16.9685 14.6013 16.571 15.0915 16.571ZM18.0507 16.571C18.5409 16.571 18.9384 16.9685 18.9384 17.4588V18.6424C18.9384 19.1327 18.5409 19.5302 18.0507 19.5302C17.5604 19.5302 17.1629 19.1327 17.1629 18.6424V17.4588C17.1629 16.9685 17.5604 16.571 18.0507 16.571ZM21.0098 16.571C21.5001 16.571 21.8975 16.9685 21.8975 17.4588V18.6424C21.8975 19.1327 21.5001 19.5302 21.0098 19.5302C20.5195 19.5302 20.1221 19.1327 20.1221 18.6424V17.4588C20.1221 16.9685 20.5195 16.571 21.0098 16.571Z" fill="#2D2D2D"/>
<path id="Vector_2" fill-rule="evenodd" clip-rule="evenodd" d="M5.10408 0.735922C5.79823 0.194769 6.59712 0 7.3978 0H18.0506C18.8514 0 19.6502 0.194769 20.3443 0.735922C21.0301 1.27058 21.5249 2.07423 21.8565 3.12771L21.8596 3.1374L25.2375 14.7917C25.3186 15.0686 25.3653 15.3591 25.3945 15.6629C25.4484 16.2245 25.4484 16.9204 25.4484 17.7634V17.8506C25.4484 18.6935 25.4484 19.3893 25.3945 19.9511C25.3384 20.5349 25.2174 21.07 24.9125 21.5532C24.6791 21.9231 24.377 22.2441 24.0213 22.4957C23.55 22.8291 23.0242 22.9622 22.4578 23.0233C21.9199 23.0811 21.2562 23.0811 20.4655 23.0811H4.98288C4.19225 23.0811 3.52863 23.0811 2.99062 23.0233C2.42428 22.9622 1.89842 22.8291 1.42711 22.4957C1.07147 22.2441 0.769384 21.9231 0.535956 21.5532C0.23106 21.07 0.110032 20.5349 0.0539392 19.9511C-2.32994e-05 19.3893 -1.14859e-05 18.6936 3.50553e-07 17.8506V17.7633C-1.14859e-05 16.9204 -2.32994e-05 16.2245 0.0539392 15.6629C0.0831162 15.3591 0.12987 15.0686 0.210927 14.7917L3.58887 3.1374L3.59191 3.12771C3.92357 2.07423 4.41828 1.27058 5.10408 0.735922ZM2.68549 12.6319C2.7858 12.6152 2.88753 12.6017 2.99062 12.5907C3.52865 12.5327 4.19229 12.5327 4.98296 12.5327H20.4655C21.2562 12.5327 21.9198 12.5327 22.4578 12.5907C22.5609 12.6017 22.6626 12.6152 22.763 12.6319L20.16 3.6515C19.9003 2.83104 19.5704 2.38387 19.2528 2.13617C18.9422 1.89402 18.5574 1.77547 18.0506 1.77547H7.3978C6.89106 1.77547 6.5063 1.89402 6.1957 2.13617C5.87797 2.38387 5.54813 2.83104 5.2884 3.6515L2.68549 12.6319ZM3.18075 14.3559C2.76662 14.4005 2.57833 14.4786 2.45256 14.5676C2.29122 14.6817 2.14945 14.8308 2.03745 15.0082C1.94337 15.1573 1.86492 15.3783 1.82128 15.8326C1.77643 16.2993 1.77547 16.9094 1.77547 17.8069C1.77547 18.7045 1.77643 19.3145 1.82128 19.7812C1.86492 20.2355 1.94337 20.4566 2.03745 20.6057C2.14945 20.7831 2.29122 20.9321 2.45256 21.0462C2.57833 21.1352 2.76662 21.2133 3.18075 21.258C3.61244 21.3045 4.17977 21.3057 5.03051 21.3057H20.4179C21.2686 21.3057 21.8361 21.3045 22.2677 21.258C22.6818 21.2133 22.8701 21.1352 22.9959 21.0462C23.1573 20.9321 23.2991 20.7831 23.411 20.6057C23.5051 20.4566 23.5835 20.2355 23.6272 19.7812C23.672 19.3145 23.673 18.7045 23.673 17.8069C23.673 16.9094 23.672 16.2993 23.6272 15.8326C23.5835 15.3783 23.5051 15.1573 23.411 15.0082C23.2991 14.8308 23.1573 14.6817 22.9959 14.5676C22.8701 14.4786 22.6818 14.4005 22.2677 14.3559C21.8361 14.3095 21.2686 14.3082 20.4179 14.3082H5.03051C4.17977 14.3082 3.61244 14.3095 3.18075 14.3559Z" fill="#2D2D2D"/>
</g>
</g>
</svg>
